<svg width="329" height="82" viewBox="0 0 329 82" fill="none" xmlns="http://www.w3.org/2000/svg">
    <style>
        path {
            fill: black;
        }
        @media (prefers-color-scheme: dark) {
            path {
                fill: white;
            }
        }
    </style>
    <path
        d="M121.771 24.6461V45.2525C121.771 47.1942 122.006 48.6661 122.46 49.6525C123.259 51.3906 124.856 52.2518 127.221 52.2518C130.243 52.2518 132.309 51.0148 133.437 48.5408C134.016 47.1942 134.298 45.4404 134.298 43.2326V24.6461H143.286V58.844H134.674V54.0212C134.596 54.1152 134.376 54.444 134.048 54.9607C133.719 55.4931 133.327 55.9472 132.873 56.3387C131.48 57.5913 130.133 58.4525 128.833 58.9223C127.549 59.3764 126.03 59.6113 124.292 59.6113C119.282 59.6113 115.9 57.7949 114.161 54.1465C113.191 52.1266 112.705 49.1671 112.705 45.2682V24.6461H121.771Z"
        fill="white" />
    <path
        d="M166.804 23.8163C170.312 23.8163 173.162 24.7558 175.385 26.6035C177.624 28.4355 178.736 31.5045 178.736 35.7949V58.8284H169.67V38.0341C169.67 36.2334 169.435 34.8554 168.95 33.9003C168.073 32.1465 166.429 31.2697 163.97 31.2697C160.964 31.2697 158.897 32.5537 157.785 35.1373C157.206 36.4996 156.908 38.2376 156.908 40.3515V58.8597H148.077V24.6932H156.626V29.6882C157.77 27.9344 158.834 26.6661 159.852 25.8988C161.7 24.5209 164.017 23.8163 166.804 23.8163Z"
        fill="white" />
    <path d="M192.171 12.5894H183.324V58.8442H192.171V12.5894Z" fill="white" />
    <path
        d="M227.088 37.4391C226.697 34.7616 225.836 32.4128 224.505 30.3772C223.033 28.0754 221.17 26.4 218.915 25.3196C216.66 24.2548 214.123 23.7224 211.305 23.7224C206.56 23.7224 202.693 25.3039 199.718 28.4669C196.758 31.6299 195.271 36.1708 195.271 42.074C195.271 48.3843 196.915 52.9566 200.203 55.7594C203.491 58.5623 207.296 59.9559 211.602 59.9559C216.832 59.9559 220.888 58.2961 223.785 54.9609C225.648 52.8626 226.697 50.8114 226.916 48.7758H217.881C217.412 49.7779 216.864 50.5609 216.237 51.1246C215.094 52.1737 213.622 52.6904 211.79 52.6904C210.068 52.6904 208.596 52.2676 207.375 51.4064C205.355 50.0285 204.305 47.6171 204.18 44.1879H227.355C227.417 41.2598 227.323 39.005 227.088 37.4391ZM204.415 38.316C204.713 36.0925 205.417 34.3388 206.529 33.0391C207.672 31.7395 209.269 31.0975 211.32 31.0975C213.199 31.0975 214.781 31.7238 216.034 32.9452C217.318 34.1509 218.022 35.9516 218.179 38.316H204.415Z"
        fill="white" />
    <path
        d="M259.502 56.4953C259.204 56.0725 259.032 55.2896 258.969 54.1152C258.938 52.565 258.907 51.2497 258.907 50.1693V34.4639C258.907 30.3458 257.466 27.5429 254.585 26.0554C251.704 24.5679 248.416 23.8319 244.705 23.8319C239.005 23.8319 234.996 25.3351 232.648 28.3415C231.176 30.2675 230.346 32.7259 230.158 35.7166H238.707C238.911 34.4013 239.334 33.3522 239.944 32.5693C240.821 31.5202 242.293 31.0034 244.391 31.0034C246.255 31.0034 247.664 31.2696 248.619 31.8177C249.59 32.3501 250.075 33.3052 250.075 34.7145C250.075 35.8732 249.449 36.7031 248.181 37.2511C247.476 37.5643 246.302 37.8305 244.673 38.034L241.651 38.4099C238.238 38.8483 235.638 39.5842 233.885 40.602C230.675 42.481 229.062 45.5187 229.062 49.7309C229.062 52.9721 230.064 55.4775 232.037 57.2625C234.057 59.0163 236.578 59.8931 239.647 59.8931C242.058 59.8931 244.204 59.3451 246.114 58.2333C247.711 57.2938 249.12 56.1508 250.342 54.8198C250.404 55.6027 250.483 56.2917 250.592 56.8867C250.686 57.4974 250.89 58.1394 251.156 58.8284H260.786V57.5131C260.222 57.2469 259.799 56.9024 259.502 56.4953ZM250.06 45.5344C249.997 48.5252 249.167 50.5921 247.539 51.7195C245.942 52.8469 244.188 53.4106 242.293 53.4106C241.103 53.4106 240.07 53.0817 239.224 52.4084C238.394 51.7195 237.987 50.6077 237.987 49.0889C237.987 47.3664 238.676 46.0981 240.038 45.2995C240.837 44.8141 242.184 44.407 244.047 44.0782L246.036 43.7024C247.038 43.5145 247.805 43.3109 248.369 43.1074C248.948 42.8725 249.527 42.575 250.075 42.2305V45.5344H250.06Z"
        fill="white" />
    <path
        d="M270.807 47.9302C270.995 49.5117 271.402 50.6391 272.012 51.3124C273.109 52.5025 275.144 53.0975 278.104 53.0975C279.842 53.0975 281.22 52.8313 282.237 52.3146C283.271 51.7822 283.788 50.9993 283.788 49.9658C283.788 48.9637 283.38 48.1964 282.551 47.6797C281.721 47.1473 278.652 46.2548 273.328 44.9865C269.491 44.0313 266.783 42.8256 265.217 41.3694C263.651 39.9445 262.852 37.8932 262.852 35.2156C262.852 32.0526 264.074 29.3437 266.516 27.0889C268.99 24.8028 272.451 23.6754 276.898 23.6754C281.126 23.6754 284.57 24.5366 287.217 26.259C289.894 27.9501 291.429 30.8939 291.82 35.0747H282.973C282.848 33.916 282.519 33.0078 282.018 32.3345C281.047 31.1288 279.388 30.5181 277.039 30.5181C275.113 30.5181 273.735 30.8156 272.905 31.4263C272.106 32.037 271.699 32.7416 271.699 33.5558C271.699 34.5736 272.138 35.3252 273.015 35.7793C273.876 36.2647 276.96 37.0946 282.253 38.2534C285.776 39.0989 288.422 40.3516 290.176 42.0427C291.914 43.7651 292.791 45.9103 292.791 48.4783C292.791 51.8605 291.538 54.632 289.033 56.7929C286.543 58.9224 282.691 60.0028 277.477 60.0028C272.153 60.0028 268.223 58.8754 265.671 56.6206C263.15 54.3345 261.881 51.4377 261.881 47.9302H270.807Z"
        fill="white" />
    <path
        d="M314.198 23.7538C316.296 23.7538 318.19 24.1296 319.882 24.8499C321.604 25.5858 323.013 26.6976 324.109 28.2164C325.049 29.4848 325.613 30.8157 325.816 32.1623C326.02 33.509 326.129 35.7011 326.129 38.7545V58.8285H317.079V38.0342C317.079 36.2022 316.766 34.7147 316.139 33.5873C315.341 32.0058 313.79 31.2072 311.536 31.2072C309.187 31.2072 307.402 32.0058 306.196 33.5873C305.006 35.1531 304.395 37.4079 304.395 40.336V58.8442H295.564V12.746H304.395V29.0933C305.679 27.1047 307.151 25.7268 308.842 24.9595C310.549 24.1609 312.334 23.7538 314.198 23.7538Z"
        fill="white" />
    <path
        d="M3.42993 60.3945L18.9092 44.7672H0V36.343H18.9089L3.42993 20.716L9.33313 14.7659L24.8179 30.3987V0H33.1638V30.3764L62.3837 0.877075L68.2869 6.82727L39.0507 36.343H95.5161V44.7672H39.0502L68.2712 74.2677L62.368 80.2178L33.1638 50.7342V81.4235H24.8179V50.7119L9.33313 66.3447L3.42993 60.3945Z"
        fill="white" />
</svg>